<svg xmlns="http://www.w3.org/2000/svg" xmlns:xlink="http://www.w3.org/1999/xlink" width="200" zoomAndPan="magnify" viewBox="0 0 150 149.999998" height="200" preserveAspectRatio="xMidYMid meet" version="1.0"><defs><clipPath id="83828c64a7"><path d="M 83 12.46875 L 110 12.46875 L 110 25 L 83 25 Z M 83 12.46875 " clip-rule="nonzero"/></clipPath><clipPath id="6750e88c10"><path d="M 0 31 L 150 31 L 150 137.71875 L 0 137.71875 Z M 0 31 " clip-rule="nonzero"/></clipPath></defs><path fill="#808080" d="M 134.996094 50.761719 L 137.539062 47.867188 C 139.972656 45.101562 139.550781 40.699219 136.507812 37.933594 C 133.46875 35.15625 129 35.097656 126.570312 37.863281 L 124.027344 40.761719 Z M 134.996094 50.761719 " fill-opacity="1" fill-rule="evenodd"/><path fill="#cccccc" d="M 91.0625 22.257812 L 101.730469 22.257812 L 101.730469 31.8125 L 91.0625 31.8125 Z M 91.0625 22.257812 " fill-opacity="1" fill-rule="evenodd"/><g clip-path="url(#83828c64a7)"><path fill="#808080" d="M 87.085938 12.476562 L 105.714844 12.476562 C 107.882812 12.476562 109.636719 14.230469 109.636719 16.417969 L 109.636719 20.925781 C 109.636719 23.113281 107.882812 24.867188 105.714844 24.867188 L 87.085938 24.867188 C 84.914062 24.867188 83.164062 23.113281 83.164062 20.925781 L 83.164062 16.417969 C 83.164062 14.230469 84.914062 12.476562 87.085938 12.476562 Z M 87.085938 12.476562 " fill-opacity="1" fill-rule="evenodd"/></g><g clip-path="url(#6750e88c10)"><path fill="#fd6b65" d="M 96.394531 31.140625 C 125.738281 31.140625 149.527344 55.003906 149.527344 84.441406 C 149.527344 113.882812 125.738281 137.75 96.394531 137.75 C 81.902344 137.75 72.308594 132.9375 52.640625 126.242188 L 58.117188 120.71875 C 60.574219 118.234375 58.164062 113.703125 54.53125 115.109375 C 38.015625 121.472656 28.390625 114.675781 23.699219 99.332031 C 30.800781 103.851562 40.609375 100.734375 43.683594 97.648438 C 48.449219 92.875 46.589844 87.351562 35.867188 90.902344 C 22.117188 95.441406 7.625 87.492188 0.660156 67.839844 C 21.695312 78.421875 23.246094 56.640625 45.464844 62.445312 C 43.574219 54.808594 38.449219 52.292969 26.710938 52.59375 C 38.351562 37.902344 55.28125 45.507812 73.136719 36.515625 C 80.160156 33.074219 88.046875 31.140625 96.394531 31.140625 Z M 96.394531 31.140625 " fill-opacity="1" fill-rule="evenodd"/></g><path fill="#f2f2f2" d="M 134.496094 84.441406 C 134.496094 105.550781 117.441406 122.660156 96.394531 122.660156 C 86.289062 122.660156 76.597656 118.640625 69.453125 111.464844 C 62.308594 104.300781 58.292969 94.578125 58.292969 84.441406 C 58.292969 74.296875 62.304688 64.585938 69.453125 57.410156 C 76.597656 50.242188 86.289062 46.214844 96.394531 46.214844 C 117.441406 46.214844 134.496094 63.335938 134.496094 84.441406 Z M 134.496094 84.441406 " fill-opacity="1" fill-rule="evenodd"/><path fill="#808080" d="M 95.824219 51.597656 C 94.726562 51.613281 93.839844 52.53125 93.851562 53.632812 L 93.851562 56.519531 C 93.851562 59.183594 97.855469 59.183594 97.855469 56.519531 L 97.855469 53.632812 C 97.875 52.5 96.957031 51.578125 95.824219 51.597656 Z M 95.824219 51.597656 " fill-opacity="1" fill-rule="nonzero"/><path fill="#808080" d="M 95.824219 110.34375 C 94.726562 110.351562 93.839844 111.261719 93.851562 112.378906 L 93.851562 115.253906 C 93.851562 117.929688 97.855469 117.929688 97.855469 115.253906 L 97.855469 112.378906 C 97.875 111.246094 96.957031 110.320312 95.824219 110.34375 Z M 95.824219 110.34375 " fill-opacity="1" fill-rule="nonzero"/><path fill="#808080" d="M 123.699219 82.4375 C 121.035156 82.4375 121.035156 86.449219 123.699219 86.449219 L 126.570312 86.449219 C 129.230469 86.449219 129.230469 82.4375 126.570312 82.4375 Z M 123.699219 82.4375 " fill-opacity="1" fill-rule="nonzero"/><path fill="#808080" d="M 65.128906 82.4375 C 62.46875 82.4375 62.46875 86.449219 65.128906 86.449219 L 68.011719 86.449219 C 70.671875 86.449219 70.671875 82.4375 68.011719 82.4375 Z M 65.128906 82.4375 " fill-opacity="1" fill-rule="nonzero"/><path fill="#808080" d="M 115.519531 102.171875 C 113.71875 102.171875 112.839844 104.359375 114.128906 105.609375 L 116.148438 107.644531 C 116.921875 108.480469 118.230469 108.496094 119.03125 107.695312 C 119.832031 106.894531 119.804688 105.589844 118.972656 104.820312 L 116.949219 102.785156 C 116.570312 102.394531 116.0625 102.171875 115.519531 102.171875 Z M 115.519531 102.171875 " fill-opacity="1" fill-rule="nonzero"/><path fill="#808080" d="M 74.109375 60.636719 C 72.3125 60.636719 71.4375 62.824219 72.71875 64.078125 L 74.75 66.101562 C 75.515625 66.933594 76.828125 66.964844 77.632812 66.160156 C 78.429688 65.359375 78.398438 64.046875 77.570312 63.273438 L 75.546875 61.25 C 75.167969 60.859375 74.648438 60.636719 74.109375 60.636719 Z M 74.109375 60.636719 " fill-opacity="1" fill-rule="nonzero"/><path fill="#808080" d="M 117.53125 60.636719 C 117.015625 60.648438 116.511719 60.871094 116.152344 61.25 L 114.128906 63.273438 C 113.300781 64.046875 113.269531 65.359375 114.066406 66.160156 C 114.867188 66.964844 116.183594 66.933594 116.949219 66.101562 L 118.972656 64.078125 C 120.285156 62.804688 119.355469 60.578125 117.53125 60.636719 Z M 117.53125 60.636719 " fill-opacity="1" fill-rule="nonzero"/><path fill="#808080" d="M 76.128906 102.171875 C 75.609375 102.191406 75.105469 102.402344 74.746094 102.785156 L 72.714844 104.820312 C 71.882812 105.589844 71.863281 106.894531 72.664062 107.695312 C 73.464844 108.496094 74.773438 108.480469 75.546875 107.644531 L 77.566406 105.609375 C 78.878906 104.339844 77.953125 102.125 76.128906 102.171875 Z M 76.128906 102.171875 " fill-opacity="1" fill-rule="nonzero"/><path fill="#808080" d="M 96.394531 81.445312 C 98.066406 81.445312 99.386719 82.761719 99.386719 84.441406 C 99.386719 86.128906 98.070312 87.441406 96.394531 87.441406 C 94.726562 87.441406 93.402344 86.128906 93.402344 84.441406 C 93.402344 82.757812 94.726562 81.445312 96.394531 81.445312 Z M 109.894531 68.265625 C 109.386719 68.277344 108.886719 68.488281 108.523438 68.859375 L 99.308594 78.109375 C 98.414062 77.691406 97.433594 77.441406 96.394531 77.441406 C 92.5625 77.441406 89.417969 80.605469 89.417969 84.441406 C 89.417969 88.28125 92.5625 91.449219 96.394531 91.449219 C 100.226562 91.449219 103.371094 88.28125 103.371094 84.441406 C 103.371094 83.089844 102.96875 81.839844 102.300781 80.765625 L 111.347656 71.683594 C 112.628906 70.410156 111.707031 68.226562 109.894531 68.265625 Z M 109.894531 68.265625 " fill-opacity="1" fill-rule="evenodd"/></svg>