<svg xmlns="http://www.w3.org/2000/svg" xmlns:xlink="http://www.w3.org/1999/xlink" width="200" zoomAndPan="magnify" viewBox="0 0 150 149.999998" height="200" preserveAspectRatio="xMidYMid meet" version="1.0"><path fill="#e44096" d="M 55.304688 45.597656 L 35.039062 75.34375 L 52.359375 70.671875 L 59.019531 98.023438 L 74.339844 55.996094 L 55.304688 45.597656 " fill-opacity="1" fill-rule="nonzero"/><path fill="#e44096" d="M 94.5 45.597656 L 114.765625 75.34375 L 97.445312 70.671875 L 90.785156 98.023438 L 75.464844 55.996094 L 94.5 45.597656 " fill-opacity="1" fill-rule="nonzero"/><path fill="#fcc257" d="M 104.871094 36.453125 C 100.574219 38.566406 99.804688 41.140625 102.347656 45.03125 C 104.0625 47.660156 101.992188 51.171875 98.867188 50.953125 C 94.363281 50.632812 92.554688 52.445312 92.871094 56.957031 C 93.09375 60.085938 89.582031 62.160156 86.960938 60.441406 C 83.074219 57.894531 80.503906 58.667969 78.394531 62.972656 C 76.957031 65.90625 72.847656 65.90625 71.410156 62.972656 C 69.300781 58.667969 66.730469 57.894531 62.84375 60.441406 C 60.222656 62.160156 56.710938 60.085938 56.933594 56.957031 C 57.25 52.445312 55.441406 50.632812 50.941406 50.953125 C 47.8125 51.171875 45.742188 47.660156 47.457031 45.03125 C 50 41.140625 49.230469 38.566406 44.933594 36.453125 C 42 35.015625 42 30.898438 44.933594 29.460938 C 49.230469 27.347656 50 24.773438 47.457031 20.882812 C 45.742188 18.253906 47.8125 14.742188 50.941406 14.960938 C 55.441406 15.28125 57.25 13.46875 56.933594 8.960938 C 56.710938 5.828125 60.222656 3.753906 62.84375 5.472656 C 66.730469 8.019531 69.300781 7.246094 71.410156 2.941406 C 72.847656 0.0078125 76.957031 0.0078125 78.394531 2.941406 C 80.503906 7.246094 83.074219 8.019531 86.960938 5.472656 C 89.582031 3.753906 93.09375 5.828125 92.871094 8.960938 C 92.554688 13.46875 94.363281 15.28125 98.867188 14.960938 C 101.992188 14.742188 104.0625 18.253906 102.347656 20.882812 C 99.804688 24.773438 100.574219 27.347656 104.871094 29.460938 C 107.804688 30.898438 107.804688 35.015625 104.871094 36.453125 " fill-opacity="1" fill-rule="nonzero"/><path fill="#feb336" d="M 100.390625 35.929688 C 96.738281 37.726562 96.082031 39.914062 98.246094 43.226562 C 99.703125 45.460938 97.945312 48.449219 95.285156 48.261719 C 91.453125 47.992188 89.914062 49.53125 90.1875 53.367188 C 90.375 56.03125 87.390625 57.792969 85.160156 56.332031 C 81.851562 54.164062 79.667969 54.824219 77.871094 58.484375 C 76.652344 60.980469 73.15625 60.980469 71.933594 58.484375 C 70.140625 54.824219 67.953125 54.164062 64.648438 56.332031 C 62.417969 57.792969 59.433594 56.03125 59.621094 53.367188 C 59.890625 49.53125 58.351562 47.992188 54.523438 48.261719 C 51.863281 48.449219 50.101562 45.460938 51.5625 43.226562 C 53.722656 39.914062 53.070312 37.726562 49.414062 35.929688 C 46.921875 34.707031 46.921875 31.207031 49.414062 29.984375 C 53.070312 28.1875 53.722656 25.996094 51.5625 22.6875 C 50.101562 20.453125 51.863281 17.464844 54.523438 17.652344 C 58.351562 17.921875 59.890625 16.382812 59.621094 12.546875 C 59.433594 9.882812 62.417969 8.121094 64.648438 9.582031 C 67.953125 11.746094 70.140625 11.089844 71.933594 7.429688 C 73.15625 4.933594 76.652344 4.933594 77.871094 7.429688 C 79.667969 11.089844 81.851562 11.746094 85.160156 9.582031 C 87.390625 8.121094 90.375 9.882812 90.1875 12.546875 C 89.914062 16.382812 91.453125 17.921875 95.285156 17.652344 C 97.945312 17.464844 99.703125 20.453125 98.246094 22.6875 C 96.082031 25.996094 96.738281 28.1875 100.390625 29.984375 C 102.886719 31.207031 102.886719 34.707031 100.390625 35.929688 " fill-opacity="1" fill-rule="nonzero"/><path fill="#fed584" d="M 77.375 14.375 L 81.449219 22.644531 C 81.851562 23.457031 82.625 24.023438 83.523438 24.152344 L 92.632812 25.480469 C 94.894531 25.808594 95.796875 28.589844 94.160156 30.1875 L 87.570312 36.621094 C 86.921875 37.257812 86.625 38.167969 86.777344 39.066406 L 88.332031 48.152344 C 88.71875 50.40625 86.355469 52.125 84.332031 51.0625 L 76.1875 46.773438 C 75.382812 46.347656 74.421875 46.347656 73.621094 46.773438 L 65.472656 51.0625 C 63.449219 52.125 61.085938 50.40625 61.472656 48.152344 L 63.027344 39.066406 C 63.183594 38.167969 62.886719 37.257812 62.234375 36.621094 L 55.644531 30.1875 C 54.007812 28.589844 54.910156 25.808594 57.171875 25.480469 L 66.28125 24.152344 C 67.179688 24.023438 67.957031 23.457031 68.355469 22.644531 L 72.429688 14.375 C 73.441406 12.324219 76.363281 12.324219 77.375 14.375 " fill-opacity="1" fill-rule="nonzero"/><path fill="#fed584" d="M 62.488281 19.195312 C 62.9375 19.359375 63.316406 19.609375 63.671875 19.878906 C 64.035156 20.144531 64.304688 20.511719 64.613281 20.835938 C 65.230469 21.484375 65.839844 22.136719 66.429688 22.816406 L 66.425781 22.863281 L 66.382812 22.863281 C 65.660156 22.335938 64.957031 21.78125 64.257812 21.226562 C 63.910156 20.941406 63.523438 20.707031 63.226562 20.367188 C 62.929688 20.035156 62.648438 19.679688 62.441406 19.242188 L 62.460938 19.195312 L 62.488281 19.195312 " fill-opacity="1" fill-rule="nonzero"/><path fill="#fed584" d="M 60.964844 38.488281 C 60.363281 39.035156 59.746094 39.554688 59.125 40.074219 C 58.8125 40.328125 58.535156 40.632812 58.175781 40.824219 C 57.824219 41.019531 57.453125 41.195312 57.019531 41.277344 L 56.976562 41.25 L 56.980469 41.222656 C 57.203125 40.84375 57.492188 40.550781 57.796875 40.28125 C 58.097656 40.011719 58.476562 39.847656 58.820312 39.640625 C 59.511719 39.226562 60.210938 38.816406 60.925781 38.433594 L 60.972656 38.449219 L 60.964844 38.488281 " fill-opacity="1" fill-rule="nonzero"/><path fill="#fed584" d="M 74.9375 47.511719 C 75.039062 48.441406 75.105469 49.367188 75.167969 50.292969 C 75.195312 50.757812 75.28125 51.222656 75.234375 51.683594 C 75.1875 52.148438 75.117188 52.613281 74.9375 53.074219 L 74.890625 53.097656 L 74.871094 53.074219 C 74.6875 52.613281 74.617188 52.148438 74.574219 51.683594 C 74.523438 51.222656 74.609375 50.757812 74.636719 50.292969 C 74.699219 49.367188 74.769531 48.441406 74.871094 47.511719 L 74.90625 47.484375 L 74.9375 47.511719 " fill-opacity="1" fill-rule="nonzero"/><path fill="#fed584" d="M 88.261719 38.429688 C 89.148438 38.566406 90.027344 38.730469 90.902344 38.902344 C 91.339844 38.992188 91.789062 39.023438 92.207031 39.1875 C 92.628906 39.347656 93.039062 39.53125 93.421875 39.824219 L 93.425781 39.875 L 93.402344 39.886719 C 92.925781 39.949219 92.476562 39.898438 92.035156 39.828125 C 91.59375 39.757812 91.1875 39.558594 90.761719 39.414062 C 89.921875 39.121094 89.078125 38.824219 88.246094 38.496094 L 88.226562 38.453125 L 88.261719 38.429688 " fill-opacity="1" fill-rule="nonzero"/><path fill="#fed584" d="M 83.371094 22.820312 C 83.875 22.023438 84.402344 21.246094 84.9375 20.472656 C 85.203125 20.089844 85.425781 19.667969 85.757812 19.332031 C 86.082031 18.992188 86.429688 18.667969 86.863281 18.414062 L 86.910156 18.425781 L 86.914062 18.457031 C 86.765625 18.9375 86.53125 19.347656 86.273438 19.742188 C 86.023438 20.140625 85.664062 20.453125 85.351562 20.800781 C 84.71875 21.496094 84.085938 22.191406 83.425781 22.859375 L 83.378906 22.863281 L 83.371094 22.820312 " fill-opacity="1" fill-rule="nonzero"/><path fill="#b73977" d="M 90.375 61.859375 L 112.5 73.703125 L 97.875 51.382812 C 97.875 51.382812 92.410156 51.671875 93.933594 57.53125 C 93.933594 57.53125 94.996094 61.09375 90.375 61.859375 " fill-opacity="1" fill-rule="nonzero"/><path fill="#b73977" d="M 57.039062 60.992188 L 58.972656 95.75 L 70.535156 63.253906 C 70.535156 63.253906 68.175781 57.472656 62.6875 61.800781 C 62.6875 61.800781 60.285156 64.65625 57.039062 60.992188 " fill-opacity="1" fill-rule="nonzero"/><path fill="#ffe2ae" d="M 86.214844 42.074219 C 86.316406 42.335938 86.609375 42.472656 86.808594 42.671875 L 86.082031 38.429688 C 85.941406 37.601562 86.214844 36.753906 86.816406 36.164062 L 92.925781 30.203125 C 94.441406 28.722656 93.605469 26.140625 91.511719 25.835938 L 83.066406 24.609375 C 82.234375 24.488281 81.515625 23.964844 81.144531 23.210938 L 77.367188 15.546875 C 76.429688 13.644531 73.722656 13.644531 72.785156 15.546875 L 69.011719 23.210938 C 68.839844 23.558594 68.589844 23.855469 68.292969 24.089844 C 73.972656 23.402344 80.519531 27.09375 86.214844 42.074219 " fill-opacity="1" fill-rule="nonzero"/><path fill="#f8b89c" d="M 83.703125 138.148438 C 83.101562 137.402344 81.667969 136.019531 81.144531 134.75 C 76.90625 124.433594 76.914062 109.546875 82.953125 100.738281 C 88.878906 92.097656 98.894531 87.3125 104.960938 78.761719 C 107.265625 75.515625 110.511719 72.964844 114.726562 74.5 C 115.835938 74.902344 116.855469 75.570312 117.601562 76.484375 C 120.046875 79.488281 119.550781 83.257812 118.34375 86.683594 C 117.230469 89.835938 107.625 103.386719 106.023438 108.097656 C 103.957031 114.175781 104.617188 122.199219 105.273438 128.523438 C 105.375 129.496094 105.085938 130.308594 105.03125 131.285156 C 104.980469 132.242188 105.15625 133.289062 104.707031 134.175781 C 104.421875 134.746094 103.914062 135.273438 103.535156 135.789062 C 102.898438 136.660156 102.535156 137.453125 101.511719 137.867188 C 100.167969 138.410156 98.625 138.914062 97.234375 139.308594 C 95.15625 139.894531 92.3125 140.085938 90.207031 139.484375 C 88.980469 139.136719 88 138.226562 86.753906 137.921875 C 83.785156 137.191406 85.246094 140.074219 83.703125 138.148438 " fill-opacity="1" fill-rule="nonzero"/><path fill="#f8b89c" d="M 113.113281 75.503906 C 114.097656 72.371094 114.761719 69.140625 115.082031 65.871094 C 115.636719 60.152344 113.8125 54.140625 112.042969 48.738281 C 111.070312 45.773438 110.390625 42.519531 111.386719 39.558594 C 112.308594 36.824219 115.027344 32.75 118.394531 32.996094 C 123.632812 33.382812 139.027344 79.675781 137.410156 84.519531 C 135.875 89.109375 106.183594 126.234375 105.773438 135.59375 C 105.640625 138.601562 103.164062 134.152344 100.117188 133.101562 C 98.335938 132.488281 97.039062 131.90625 95.484375 130.796875 C 94.035156 129.761719 93.429688 128.453125 92.707031 126.84375 C 91.855469 124.941406 91.363281 122.957031 91.1875 120.882812 C 90.972656 118.394531 91.554688 116.136719 92.027344 113.703125 C 94.886719 98.988281 108.675781 89.625 113.113281 75.503906 " fill-opacity="1" fill-rule="nonzero"/><path fill="#dca58c" d="M 120.003906 35.136719 C 120.003906 35.136719 135.945312 74.09375 132.28125 84.675781 C 132.28125 84.675781 103.613281 118.257812 105.917969 130.84375 C 105.917969 130.84375 117.722656 110.535156 135.972656 85.699219 C 135.972656 85.699219 137.03125 85.03125 135.492188 78.109375 C 133.949219 71.191406 128.917969 48.277344 120.003906 35.136719 " fill-opacity="1" fill-rule="nonzero"/><path fill="#c99781" d="M 113.546875 74.070312 C 115.414062 74.769531 117.15625 75.945312 118.335938 77.648438 C 118.640625 78.070312 118.867188 78.539062 119.082031 79.015625 C 119.261719 79.503906 119.429688 80.003906 119.503906 80.523438 C 119.679688 81.558594 119.628906 82.628906 119.410156 83.644531 C 119.1875 84.664062 118.808594 85.632812 118.359375 86.554688 L 118.007812 87.242188 L 117.621094 87.902344 C 117.359375 88.351562 117.101562 88.75 116.84375 89.175781 C 115.808594 90.855469 114.808594 92.558594 113.824219 94.265625 C 112.855469 95.980469 111.902344 97.707031 111.007812 99.460938 C 110.097656 101.207031 109.164062 102.9375 108.226562 104.660156 C 107.269531 106.375 106.355469 108.109375 105.46875 109.851562 C 104.601562 111.609375 103.722656 113.355469 103.175781 115.25 L 102.976562 115.230469 C 102.988281 114.734375 102.972656 114.207031 103.058594 113.710938 L 103.167969 112.957031 L 103.324219 112.214844 C 103.425781 111.714844 103.558594 111.230469 103.699219 110.746094 C 103.828125 110.257812 103.988281 109.777344 104.152344 109.304688 C 104.453125 108.339844 104.839844 107.417969 105.203125 106.484375 C 105.59375 105.5625 105.996094 104.644531 106.417969 103.738281 C 108.09375 100.105469 110.308594 96.777344 112.4375 93.421875 C 113.515625 91.75 114.609375 90.089844 115.738281 88.457031 C 116.015625 88.050781 116.3125 87.632812 116.570312 87.234375 L 116.96875 86.632812 L 117.324219 86.015625 C 117.785156 85.179688 118.175781 84.3125 118.425781 83.40625 C 118.949219 81.609375 118.816406 79.617188 117.8125 77.988281 C 117.332031 77.167969 116.675781 76.445312 115.933594 75.824219 C 115.191406 75.203125 114.363281 74.660156 113.476562 74.261719 L 113.546875 74.070312 " fill-opacity="1" fill-rule="nonzero"/><path fill="#c99781" d="M 107.957031 77.039062 C 107.363281 77.84375 106.84375 78.683594 106.515625 79.5625 C 106.171875 80.4375 106.078125 81.355469 106.367188 82.09375 C 106.515625 82.464844 106.75 82.792969 107.042969 83.085938 C 107.191406 83.238281 107.351562 83.359375 107.53125 83.503906 L 108.113281 83.949219 C 108.890625 84.535156 109.667969 85.125 110.449219 85.550781 C 110.835938 85.773438 111.226562 85.941406 111.566406 85.988281 C 111.90625 86.039062 112.1875 85.988281 112.496094 85.808594 C 112.804688 85.625 113.113281 85.332031 113.402344 84.984375 C 113.699219 84.625 114.003906 84.230469 114.304688 83.847656 C 115.492188 82.289062 116.664062 80.695312 117.929688 79.144531 C 117.210938 81.015625 116.3125 82.796875 115.285156 84.515625 C 115.027344 84.949219 114.769531 85.371094 114.46875 85.796875 C 114.164062 86.242188 113.785156 86.675781 113.261719 87.035156 C 112.746094 87.398438 112.003906 87.570312 111.367188 87.476562 C 110.71875 87.394531 110.195312 87.148438 109.71875 86.886719 C 108.769531 86.355469 107.984375 85.71875 107.214844 85.074219 L 106.648438 84.585938 C 106.449219 84.410156 106.238281 84.207031 106.054688 83.988281 C 105.679688 83.554688 105.382812 83.019531 105.238281 82.445312 C 105.09375 81.867188 105.09375 81.265625 105.222656 80.722656 C 105.355469 80.179688 105.578125 79.683594 105.847656 79.234375 C 106.414062 78.347656 107.128906 77.605469 107.957031 77.039062 " fill-opacity="1" fill-rule="nonzero"/><path fill="#c99781" d="M 102.6875 83.972656 C 103.402344 84.476562 104.066406 85.007812 104.71875 85.539062 L 106.675781 87.109375 C 107.328125 87.621094 107.984375 88.117188 108.675781 88.550781 C 109.371094 88.96875 110.082031 89.363281 110.949219 89.460938 C 110.542969 89.636719 110.070312 89.652344 109.621094 89.609375 C 109.171875 89.550781 108.734375 89.425781 108.320312 89.257812 C 107.484375 88.929688 106.738281 88.445312 106.050781 87.910156 C 105.363281 87.367188 104.734375 86.765625 104.171875 86.109375 C 103.605469 85.453125 103.089844 84.753906 102.6875 83.972656 " fill-opacity="1" fill-rule="nonzero"/><path fill="#c99781" d="M 93.46875 94.097656 C 94.285156 94.675781 95.042969 95.28125 95.792969 95.894531 L 98.035156 97.691406 C 98.78125 98.273438 99.53125 98.839844 100.320312 99.335938 C 101.121094 99.816406 101.929688 100.269531 102.925781 100.378906 C 102.460938 100.582031 101.921875 100.601562 101.40625 100.550781 C 100.890625 100.484375 100.390625 100.339844 99.917969 100.148438 C 98.960938 99.773438 98.105469 99.21875 97.316406 98.605469 C 96.53125 97.988281 95.8125 97.296875 95.167969 96.542969 C 94.519531 95.792969 93.925781 94.992188 93.46875 94.097656 " fill-opacity="1" fill-rule="nonzero"/><path fill="#c99781" d="M 115.050781 35.375 C 115.652344 36.789062 116.171875 38.144531 116.828125 39.394531 C 117.148438 40.023438 117.492188 40.628906 117.871094 41.203125 C 118.246094 41.78125 118.648438 42.335938 119.089844 42.855469 C 119.515625 43.390625 120 43.871094 120.488281 44.355469 L 120.867188 44.707031 L 120.964844 44.792969 L 121.039062 44.859375 L 121.121094 44.933594 C 121.175781 44.976562 121.21875 45 121.285156 45.011719 C 121.34375 45.035156 121.433594 45.035156 121.542969 45.011719 C 121.761719 44.976562 122.039062 44.84375 122.308594 44.667969 C 122.582031 44.492188 122.855469 44.277344 123.121094 44.042969 C 123.664062 43.578125 124.183594 43.050781 124.726562 42.503906 C 124.570312 43.261719 124.28125 43.984375 123.898438 44.671875 C 123.703125 45.015625 123.476562 45.351562 123.195312 45.667969 C 122.914062 45.980469 122.582031 46.292969 122.101562 46.511719 C 121.652344 46.742188 120.941406 46.824219 120.371094 46.5625 C 120.226562 46.507812 120.101562 46.4375 119.976562 46.359375 C 119.90625 46.316406 119.867188 46.285156 119.828125 46.257812 L 119.710938 46.171875 L 119.234375 45.820312 C 118.617188 45.320312 118.03125 44.773438 117.527344 44.152344 C 117.269531 43.851562 117.046875 43.519531 116.8125 43.195312 C 116.609375 42.855469 116.382812 42.523438 116.210938 42.164062 C 115.84375 41.464844 115.554688 40.722656 115.347656 39.96875 C 114.925781 38.460938 114.820312 36.894531 115.050781 35.375 " fill-opacity="1" fill-rule="nonzero"/><path fill="#c99781" d="M 121.804688 49.359375 C 122.222656 49.171875 122.628906 48.960938 123.023438 48.726562 C 123.417969 48.5 123.800781 48.257812 124.167969 47.988281 C 124.539062 47.726562 124.867188 47.414062 125.238281 47.160156 C 125.617188 46.90625 125.984375 46.644531 126.410156 46.421875 L 126.445312 46.433594 L 126.445312 46.457031 C 126.214844 46.878906 125.90625 47.242188 125.554688 47.554688 C 125.214844 47.882812 124.789062 48.097656 124.386719 48.332031 C 123.574219 48.789062 122.71875 49.175781 121.820312 49.40625 L 121.789062 49.390625 L 121.804688 49.359375 " fill-opacity="1" fill-rule="nonzero"/><path fill="#c99781" d="M 129.289062 84.839844 C 129.996094 84.90625 130.703125 84.917969 131.40625 84.894531 C 132.109375 84.878906 132.8125 84.820312 133.503906 84.71875 C 134.199219 84.609375 134.863281 84.40625 135.53125 84.246094 C 136.199219 84.058594 136.84375 83.828125 137.511719 83.5625 L 137.546875 83.574219 L 137.539062 83.605469 C 137.019531 84.109375 136.367188 84.46875 135.683594 84.730469 C 134.996094 84.972656 134.269531 85.054688 133.550781 85.121094 C 132.117188 85.234375 130.683594 85.15625 129.28125 84.890625 L 129.261719 84.859375 L 129.289062 84.839844 " fill-opacity="1" fill-rule="nonzero"/><path fill="#c99781" d="M 125.230469 67.609375 C 125.933594 67.574219 126.628906 67.453125 127.308594 67.289062 C 127.992188 67.132812 128.660156 66.925781 129.300781 66.660156 C 129.949219 66.402344 130.554688 66.0625 131.167969 65.746094 C 131.796875 65.449219 132.386719 65.085938 133.03125 64.765625 L 133.066406 64.773438 L 133.0625 64.804688 C 132.589844 65.347656 132.035156 65.820312 131.417969 66.191406 C 130.808594 66.582031 130.121094 66.820312 129.441406 67.042969 C 128.078125 67.488281 126.648438 67.714844 125.230469 67.660156 L 125.207031 67.632812 L 125.230469 67.609375 " fill-opacity="1" fill-rule="nonzero"/><path fill="#46b5ad" d="M 109.351562 149.992188 L 109.800781 132.867188 L 77.46875 132.636719 L 77.976562 149.992188 L 109.351562 149.992188 " fill-opacity="1" fill-rule="nonzero"/><path fill="#39928b" d="M 93.671875 133.335938 C 93.671875 133.335938 102.15625 138.378906 101.832031 149.257812 L 108.121094 149.257812 L 108.941406 133.585938 L 93.671875 133.335938 " fill-opacity="1" fill-rule="nonzero"/><path fill="#ffffff" d="M 80.898438 127.929688 C 79.992188 125.089844 79.519531 122.121094 79.355469 119.140625 C 79.21875 116.15625 79.429688 113.144531 80.074219 110.210938 C 80.398438 108.746094 80.816406 107.296875 81.347656 105.886719 C 81.902344 104.488281 82.554688 103.125 83.351562 101.84375 C 84.953125 99.292969 86.976562 97.015625 89.332031 95.1875 L 89.386719 95.246094 C 87.328125 97.394531 85.453125 99.683594 84.007812 102.238281 L 83.46875 103.195312 C 83.289062 103.515625 83.140625 103.847656 82.972656 104.175781 C 82.628906 104.820312 82.351562 105.503906 82.054688 106.171875 C 81.492188 107.527344 81.035156 108.925781 80.671875 110.351562 C 79.964844 113.210938 79.679688 116.171875 79.738281 119.128906 C 79.800781 122.082031 80.167969 125.050781 80.96875 127.90625 L 80.898438 127.929688 " fill-opacity="1" fill-rule="nonzero"/><path fill="#f8b89c" d="M 66.105469 138.148438 C 66.703125 137.402344 68.136719 136.019531 68.660156 134.75 C 72.898438 124.433594 72.890625 109.546875 66.851562 100.738281 C 60.929688 92.097656 50.910156 87.3125 44.84375 78.761719 C 42.542969 75.515625 39.292969 72.964844 35.078125 74.5 C 33.972656 74.902344 32.949219 75.570312 32.203125 76.484375 C 29.757812 79.488281 30.253906 83.257812 31.460938 86.683594 C 32.574219 89.835938 42.183594 103.386719 43.78125 108.097656 C 45.847656 114.175781 45.1875 122.199219 44.53125 128.523438 C 44.429688 129.496094 44.71875 130.308594 44.773438 131.285156 C 44.824219 132.242188 44.648438 133.289062 45.097656 134.175781 C 45.386719 134.746094 45.890625 135.273438 46.269531 135.789062 C 46.90625 136.660156 47.269531 137.453125 48.292969 137.867188 C 49.636719 138.410156 51.179688 138.914062 52.570312 139.308594 C 54.648438 139.894531 57.496094 140.085938 59.597656 139.484375 C 60.828125 139.136719 61.804688 138.226562 63.050781 137.921875 C 66.019531 137.191406 64.5625 140.074219 66.105469 138.148438 " fill-opacity="1" fill-rule="nonzero"/><path fill="#f8b89c" d="M 36.691406 75.503906 C 35.707031 72.371094 35.042969 69.140625 34.726562 65.871094 C 34.167969 60.152344 35.996094 54.140625 37.765625 48.738281 C 38.734375 45.773438 39.414062 42.519531 38.417969 39.558594 C 37.496094 36.824219 34.777344 32.753906 31.410156 32.996094 C 26.171875 33.382812 10.777344 79.675781 12.394531 84.519531 C 13.929688 89.109375 43.621094 126.234375 44.03125 135.59375 C 44.164062 138.601562 46.640625 134.152344 49.691406 133.101562 C 51.46875 132.488281 52.765625 131.90625 54.320312 130.796875 C 55.769531 129.761719 56.375 128.453125 57.097656 126.84375 C 57.949219 124.941406 58.441406 122.957031 58.621094 120.882812 C 58.832031 118.394531 58.25 116.136719 57.777344 113.703125 C 54.917969 98.988281 41.128906 89.625 36.691406 75.503906 " fill-opacity="1" fill-rule="nonzero"/><path fill="#dca58c" d="M 29.800781 35.136719 C 29.800781 35.136719 13.859375 74.09375 17.527344 84.675781 C 17.527344 84.675781 46.191406 118.257812 43.890625 130.84375 C 43.890625 130.84375 32.082031 110.535156 13.832031 85.699219 C 13.832031 85.699219 12.773438 85.03125 14.316406 78.113281 C 15.855469 71.191406 20.886719 48.277344 29.800781 35.136719 " fill-opacity="1" fill-rule="nonzero"/><path fill="#c99781" d="M 36.332031 74.261719 C 35.445312 74.660156 34.613281 75.203125 33.871094 75.824219 C 33.128906 76.445312 32.476562 77.167969 31.992188 77.988281 C 30.988281 79.617188 30.855469 81.609375 31.378906 83.40625 C 31.628906 84.3125 32.019531 85.179688 32.480469 86.015625 L 32.839844 86.632812 L 33.234375 87.234375 C 33.492188 87.632812 33.789062 88.050781 34.066406 88.457031 C 35.195312 90.089844 36.289062 91.75 37.367188 93.421875 C 39.496094 96.777344 41.710938 100.105469 43.386719 103.738281 C 43.808594 104.644531 44.210938 105.5625 44.601562 106.484375 C 44.964844 107.417969 45.351562 108.339844 45.65625 109.304688 C 45.816406 109.777344 45.976562 110.257812 46.105469 110.746094 C 46.246094 111.230469 46.378906 111.714844 46.484375 112.214844 L 46.640625 112.957031 L 46.746094 113.710938 C 46.835938 114.207031 46.816406 114.734375 46.828125 115.230469 L 46.628906 115.25 C 46.082031 113.355469 45.203125 111.609375 44.335938 109.851562 C 43.449219 108.109375 42.535156 106.375 41.578125 104.660156 C 40.640625 102.9375 39.707031 101.207031 38.800781 99.460938 C 37.90625 97.707031 36.949219 95.980469 35.980469 94.265625 C 34.996094 92.558594 34 90.855469 32.960938 89.175781 C 32.703125 88.75 32.445312 88.351562 32.1875 87.902344 L 31.796875 87.242188 L 31.445312 86.554688 C 30.996094 85.632812 30.621094 84.664062 30.394531 83.644531 C 30.175781 82.628906 30.125 81.558594 30.300781 80.523438 C 30.375 80.003906 30.542969 79.503906 30.722656 79.015625 C 30.9375 78.539062 31.164062 78.070312 31.46875 77.648438 C 32.648438 75.945312 34.390625 74.769531 36.257812 74.070312 L 36.332031 74.261719 " fill-opacity="1" fill-rule="nonzero"/><path fill="#c99781" d="M 41.847656 77.039062 C 42.675781 77.605469 43.390625 78.347656 43.957031 79.234375 C 44.226562 79.683594 44.449219 80.179688 44.582031 80.722656 C 44.710938 81.265625 44.710938 81.867188 44.570312 82.445312 C 44.421875 83.019531 44.125 83.554688 43.75 83.988281 C 43.570312 84.207031 43.355469 84.410156 43.15625 84.585938 L 42.589844 85.074219 C 41.820312 85.71875 41.035156 86.355469 40.085938 86.886719 C 39.613281 87.148438 39.085938 87.394531 38.441406 87.476562 C 37.804688 87.570312 37.058594 87.398438 36.542969 87.035156 C 36.023438 86.675781 35.640625 86.242188 35.335938 85.796875 C 35.035156 85.371094 34.78125 84.949219 34.519531 84.515625 C 33.492188 82.796875 32.59375 81.015625 31.875 79.144531 C 33.140625 80.695312 34.3125 82.289062 35.5 83.847656 C 35.800781 84.230469 36.109375 84.625 36.40625 84.984375 C 36.691406 85.332031 37 85.625 37.308594 85.808594 C 37.617188 85.988281 37.898438 86.039062 38.238281 85.988281 C 38.578125 85.941406 38.96875 85.773438 39.355469 85.550781 C 40.136719 85.125 40.914062 84.535156 41.691406 83.949219 L 42.273438 83.503906 C 42.453125 83.359375 42.613281 83.238281 42.761719 83.085938 C 43.054688 82.792969 43.289062 82.464844 43.4375 82.09375 C 43.726562 81.355469 43.632812 80.4375 43.289062 79.5625 C 42.960938 78.683594 42.441406 77.84375 41.847656 77.039062 " fill-opacity="1" fill-rule="nonzero"/><path fill="#c99781" d="M 47.117188 83.972656 C 46.71875 84.753906 46.199219 85.453125 45.632812 86.109375 C 45.070312 86.765625 44.441406 87.367188 43.753906 87.910156 C 43.066406 88.445312 42.320312 88.929688 41.484375 89.257812 C 41.070312 89.425781 40.632812 89.550781 40.183594 89.609375 C 39.734375 89.652344 39.261719 89.636719 38.855469 89.460938 C 39.726562 89.363281 40.433594 88.96875 41.128906 88.550781 C 41.820312 88.117188 42.476562 87.621094 43.128906 87.109375 L 45.085938 85.539062 C 45.742188 85.007812 46.402344 84.476562 47.117188 83.972656 " fill-opacity="1" fill-rule="nonzero"/><path fill="#c99781" d="M 56.335938 94.097656 C 55.878906 94.992188 55.285156 95.792969 54.636719 96.542969 C 53.992188 97.296875 53.273438 97.988281 52.488281 98.605469 C 51.699219 99.21875 50.84375 99.773438 49.886719 100.148438 C 49.414062 100.339844 48.914062 100.484375 48.398438 100.550781 C 47.886719 100.601562 47.347656 100.582031 46.878906 100.378906 C 47.875 100.269531 48.6875 99.816406 49.484375 99.335938 C 50.273438 98.839844 51.023438 98.273438 51.773438 97.691406 L 54.011719 95.894531 C 54.761719 95.28125 55.519531 94.675781 56.335938 94.097656 " fill-opacity="1" fill-rule="nonzero"/><path fill="#c99781" d="M 34.753906 35.375 C 34.988281 36.894531 34.878906 38.460938 34.457031 39.96875 C 34.25 40.722656 33.960938 41.464844 33.59375 42.164062 C 33.421875 42.523438 33.195312 42.855469 32.992188 43.195312 C 32.761719 43.519531 32.535156 43.851562 32.277344 44.152344 C 31.773438 44.773438 31.1875 45.320312 30.574219 45.820312 L 30.09375 46.171875 L 29.976562 46.257812 C 29.9375 46.285156 29.898438 46.316406 29.828125 46.359375 C 29.707031 46.4375 29.578125 46.507812 29.433594 46.5625 C 28.867188 46.824219 28.152344 46.742188 27.703125 46.511719 C 27.226562 46.292969 26.894531 45.980469 26.609375 45.667969 C 26.328125 45.351562 26.101562 45.015625 25.90625 44.671875 C 25.523438 43.984375 25.234375 43.261719 25.078125 42.503906 C 25.621094 43.050781 26.144531 43.578125 26.683594 44.042969 C 26.949219 44.277344 27.226562 44.492188 27.496094 44.667969 C 27.765625 44.84375 28.042969 44.976562 28.261719 45.011719 C 28.371094 45.035156 28.460938 45.035156 28.523438 45.011719 C 28.589844 45 28.632812 44.976562 28.683594 44.933594 L 28.765625 44.859375 L 28.839844 44.792969 L 28.9375 44.707031 L 29.316406 44.355469 C 29.808594 43.871094 30.292969 43.390625 30.71875 42.855469 C 31.160156 42.335938 31.5625 41.78125 31.933594 41.203125 C 32.3125 40.628906 32.65625 40.023438 32.976562 39.394531 C 33.632812 38.144531 34.152344 36.789062 34.753906 35.375 " fill-opacity="1" fill-rule="nonzero"/><path fill="#c99781" d="M 27.988281 49.40625 C 27.085938 49.175781 26.234375 48.789062 25.421875 48.332031 C 25.015625 48.097656 24.59375 47.882812 24.25 47.554688 C 23.902344 47.242188 23.59375 46.878906 23.359375 46.460938 L 23.371094 46.421875 L 23.394531 46.421875 C 23.824219 46.644531 24.1875 46.90625 24.566406 47.160156 C 24.9375 47.414062 25.269531 47.726562 25.636719 47.988281 C 26.003906 48.257812 26.390625 48.5 26.785156 48.730469 C 27.175781 48.960938 27.582031 49.171875 28 49.359375 L 28.015625 49.390625 L 27.988281 49.40625 " fill-opacity="1" fill-rule="nonzero"/><path fill="#c99781" d="M 20.523438 84.890625 C 19.121094 85.15625 17.6875 85.234375 16.253906 85.121094 C 15.539062 85.054688 14.808594 84.972656 14.121094 84.730469 C 13.441406 84.46875 12.785156 84.109375 12.265625 83.605469 L 12.261719 83.566406 L 12.292969 83.5625 C 12.960938 83.828125 13.605469 84.058594 14.273438 84.242188 C 14.941406 84.40625 15.609375 84.609375 16.300781 84.71875 C 16.992188 84.820312 17.691406 84.878906 18.398438 84.894531 C 19.101562 84.917969 19.808594 84.90625 20.515625 84.839844 L 20.542969 84.859375 L 20.523438 84.890625 " fill-opacity="1" fill-rule="nonzero"/><path fill="#c99781" d="M 24.574219 67.660156 C 23.15625 67.71875 21.726562 67.488281 20.363281 67.042969 C 19.6875 66.816406 18.996094 66.582031 18.386719 66.191406 C 17.769531 65.820312 17.214844 65.34375 16.746094 64.804688 L 16.746094 64.765625 L 16.777344 64.765625 C 17.421875 65.085938 18.007812 65.449219 18.636719 65.75 C 19.25 66.0625 19.855469 66.398438 20.503906 66.660156 C 21.148438 66.925781 21.816406 67.132812 22.496094 67.289062 C 23.175781 67.457031 23.871094 67.574219 24.574219 67.609375 L 24.601562 67.632812 L 24.574219 67.660156 " fill-opacity="1" fill-rule="nonzero"/><path fill="#46b5ad" d="M 71.828125 149.992188 L 72.339844 132.636719 L 40.003906 132.867188 L 40.457031 149.992188 L 71.828125 149.992188 " fill-opacity="1" fill-rule="nonzero"/><path fill="#39928b" d="M 56.132812 133.335938 C 56.132812 133.335938 48.960938 138.378906 49.285156 149.257812 L 41.253906 149.257812 L 40.863281 133.585938 L 56.132812 133.335938 " fill-opacity="1" fill-rule="nonzero"/><path fill="#ffffff" d="M 68.835938 127.90625 C 69.640625 125.050781 70.003906 122.082031 70.066406 119.128906 C 70.128906 116.171875 69.839844 113.210938 69.132812 110.351562 C 68.769531 108.925781 68.3125 107.527344 67.75 106.171875 C 67.453125 105.503906 67.175781 104.820312 66.832031 104.175781 C 66.664062 103.847656 66.515625 103.515625 66.335938 103.195312 L 65.796875 102.238281 C 64.351562 99.683594 62.476562 97.394531 60.421875 95.246094 L 60.472656 95.1875 C 62.828125 97.015625 64.855469 99.292969 66.457031 101.84375 C 67.25 103.125 67.902344 104.488281 68.457031 105.886719 C 68.988281 107.296875 69.40625 108.746094 69.730469 110.210938 C 70.375 113.144531 70.589844 116.15625 70.449219 119.140625 C 70.285156 122.121094 69.8125 125.089844 68.90625 127.929688 L 68.835938 127.90625 " fill-opacity="1" fill-rule="nonzero"/><path fill="#ffffff" d="M 79.972656 63.535156 L 82.726562 70.238281 L 85.441406 76.957031 C 86.351562 79.195312 87.300781 81.421875 88.121094 83.691406 C 88.53125 84.828125 88.941406 85.964844 89.320312 87.113281 C 89.703125 88.261719 90.078125 89.410156 90.410156 90.578125 L 90.382812 90.625 L 90.339844 90.605469 C 89.800781 89.519531 89.308594 88.414062 88.820312 87.308594 C 88.328125 86.203125 87.867188 85.085938 87.40625 83.96875 C 86.492188 81.734375 85.699219 79.449219 84.867188 77.179688 L 82.367188 70.378906 L 79.902344 63.5625 L 79.921875 63.511719 L 79.972656 63.535156 " fill-opacity="1" fill-rule="nonzero"/><path fill="#ffffff" d="M 52.234375 53.097656 L 49.023438 57.871094 L 45.777344 62.621094 C 44.695312 64.203125 43.660156 65.820312 42.503906 67.351562 C 41.351562 68.882812 40.171875 70.394531 38.886719 71.832031 L 38.832031 71.835938 L 38.824219 71.789062 C 39.765625 70.105469 40.808594 68.496094 41.878906 66.90625 C 42.949219 65.3125 44.136719 63.804688 45.277344 62.265625 L 48.710938 57.648438 L 52.171875 53.054688 L 52.226562 53.046875 L 52.234375 53.097656 " fill-opacity="1" fill-rule="nonzero"/><path fill="#ffffff" d="M 57.402344 29.628906 L 61.4375 33.351562 L 63.4375 35.226562 C 64.160156 35.847656 64.683594 36.765625 64.816406 37.746094 C 64.898438 38.222656 64.851562 38.761719 64.792969 39.195312 L 64.640625 40.558594 L 64.46875 41.921875 L 64.265625 43.277344 C 63.960938 45.082031 63.625 46.882812 63.160156 48.667969 L 63.113281 48.695312 L 63.085938 48.65625 C 63.128906 46.816406 63.300781 44.992188 63.503906 43.171875 L 63.679688 41.8125 L 63.886719 40.453125 L 64.117188 39.101562 C 64.203125 38.632812 64.253906 38.25 64.207031 37.820312 C 64.121094 36.976562 63.730469 36.1875 63.089844 35.582031 L 61.167969 33.625 L 57.351562 29.683594 L 57.351562 29.628906 L 57.402344 29.628906 " fill-opacity="1" fill-rule="nonzero"/><path fill="#ffffff" d="M 45.105469 35.339844 C 46.136719 35.832031 47.136719 36.402344 48.066406 37.089844 C 48.527344 37.4375 48.972656 37.816406 49.371094 38.257812 C 49.761719 38.695312 50.128906 39.195312 50.316406 39.8125 C 50.5 40.425781 50.488281 41.042969 50.449219 41.636719 C 50.398438 42.234375 50.273438 42.816406 50.082031 43.371094 C 49.707031 44.476562 49.191406 45.523438 48.496094 46.460938 L 48.441406 46.46875 L 48.429688 46.425781 C 48.738281 45.3125 49.082031 44.238281 49.347656 43.15625 C 49.476562 42.613281 49.613281 42.082031 49.695312 41.546875 C 49.785156 41.015625 49.835938 40.464844 49.722656 39.96875 C 49.609375 39.480469 49.324219 39.007812 48.988281 38.582031 C 48.652344 38.148438 48.25 37.753906 47.824219 37.386719 C 46.984375 36.640625 46.046875 35.984375 45.070312 35.410156 L 45.054688 35.355469 L 45.105469 35.339844 " fill-opacity="1" fill-rule="nonzero"/><path fill="#ffffff" d="M 47.875 19.535156 C 48.578125 20.441406 49.214844 21.398438 49.734375 22.433594 C 49.992188 22.953125 50.21875 23.492188 50.371094 24.0625 C 50.523438 24.632812 50.628906 25.246094 50.519531 25.878906 C 50.410156 26.511719 50.121094 27.054688 49.816406 27.570312 C 49.5 28.078125 49.128906 28.542969 48.710938 28.953125 C 47.875 29.769531 46.945312 30.472656 45.90625 30.992188 L 45.851562 30.976562 L 45.859375 30.933594 C 46.636719 30.078125 47.429688 29.273438 48.148438 28.425781 C 48.511719 28.003906 48.871094 27.589844 49.1875 27.148438 C 49.503906 26.714844 49.796875 26.246094 49.917969 25.753906 C 50.039062 25.265625 49.996094 24.714844 49.886719 24.179688 C 49.78125 23.644531 49.601562 23.109375 49.386719 22.589844 C 48.96875 21.546875 48.429688 20.539062 47.8125 19.582031 L 47.824219 19.527344 L 47.875 19.535156 " fill-opacity="1" fill-rule="nonzero"/><path fill="#ffffff" d="M 58.742188 9.058594 C 58.707031 10.203125 58.585938 11.347656 58.332031 12.480469 C 58.199219 13.042969 58.03125 13.601562 57.785156 14.144531 C 57.539062 14.679688 57.230469 15.214844 56.742188 15.636719 C 56.257812 16.050781 55.6875 16.289062 55.128906 16.492188 C 54.558594 16.679688 53.980469 16.800781 53.394531 16.847656 C 52.230469 16.945312 51.066406 16.894531 49.933594 16.632812 L 49.90625 16.585938 L 49.9375 16.554688 C 51.078125 16.394531 52.203125 16.277344 53.296875 16.085938 C 53.84375 15.992188 54.386719 15.902344 54.910156 15.761719 C 55.429688 15.632812 55.953125 15.457031 56.359375 15.152344 C 56.765625 14.855469 57.078125 14.402344 57.335938 13.921875 C 57.597656 13.441406 57.796875 12.914062 57.960938 12.378906 C 58.308594 11.308594 58.53125 10.183594 58.667969 9.054688 L 58.707031 9.019531 L 58.742188 9.058594 " fill-opacity="1" fill-rule="nonzero"/><path fill="#ffffff" d="M 61.898438 59.398438 C 62.84375 58.753906 63.839844 58.179688 64.902344 57.722656 C 65.433594 57.5 65.984375 57.304688 66.566406 57.1875 C 67.144531 57.074219 67.757812 57.007812 68.386719 57.15625 C 69.007812 57.304688 69.53125 57.628906 70.027344 57.964844 C 70.511719 58.3125 70.953125 58.710938 71.332031 59.15625 C 72.097656 60.042969 72.738281 61.015625 73.191406 62.089844 L 73.171875 62.140625 L 73.128906 62.128906 C 72.324219 61.300781 71.574219 60.457031 70.773438 59.683594 C 70.375 59.296875 69.984375 58.910156 69.566406 58.566406 C 69.152344 58.222656 68.707031 57.902344 68.222656 57.75 C 67.742188 57.597656 67.191406 57.609375 66.652344 57.679688 C 66.109375 57.753906 65.566406 57.902344 65.035156 58.082031 C 63.96875 58.433594 62.929688 58.910156 61.9375 59.464844 L 61.886719 59.453125 L 61.898438 59.398438 " fill-opacity="1" fill-rule="nonzero"/><path fill="#ffffff" d="M 50.492188 49.355469 C 51.632812 49.269531 52.78125 49.273438 53.929688 49.410156 C 54.503906 49.484375 55.078125 49.59375 55.640625 49.78125 C 56.195312 49.96875 56.761719 50.222656 57.230469 50.664062 C 57.695312 51.105469 57.988281 51.648438 58.246094 52.1875 C 58.496094 52.730469 58.675781 53.296875 58.78125 53.875 C 59 55.023438 59.066406 56.1875 58.925781 57.34375 L 58.882812 57.378906 L 58.847656 57.347656 C 58.570312 56.226562 58.339844 55.121094 58.035156 54.050781 C 57.882812 53.515625 57.738281 52.984375 57.546875 52.480469 C 57.363281 51.972656 57.136719 51.472656 56.792969 51.097656 C 56.453125 50.726562 55.972656 50.457031 55.46875 50.25 C 54.960938 50.039062 54.417969 49.898438 53.867188 49.789062 C 52.769531 49.554688 51.628906 49.449219 50.496094 49.433594 L 50.457031 49.394531 L 50.492188 49.355469 " fill-opacity="1" fill-rule="nonzero"/><path fill="#ffffff" d="M 70.320312 134.71875 L 70.476562 138.128906 L 70.589844 141.535156 C 70.625 142.671875 70.722656 143.808594 70.667969 144.941406 C 70.617188 146.078125 70.535156 147.214844 70.320312 148.351562 L 70.246094 148.351562 C 70.035156 147.214844 69.953125 146.078125 69.898438 144.941406 C 69.84375 143.808594 69.945312 142.671875 69.976562 141.535156 L 70.09375 138.128906 L 70.246094 134.71875 L 70.320312 134.71875 " fill-opacity="1" fill-rule="nonzero"/></svg>